<?xml version="1.0" encoding="UTF-8" standalone="no"?>
<!-- Created with Inkscape (http://www.inkscape.org/) -->

<svg
   width="86mm"
   height="94mm"
   viewBox="0 0 86 94"
   version="1.1"
   id="svg1"
   xml:space="preserve"
   inkscape:version="1.4 (e7c3feb100, 2024-10-09)"
   sodipodi:docname="BirdLogoFreecorder.svg"
   xmlns:inkscape="http://www.inkscape.org/namespaces/inkscape"
   xmlns:sodipodi="http://sodipodi.sourceforge.net/DTD/sodipodi-0.dtd"
   xmlns="http://www.w3.org/2000/svg"
   xmlns:svg="http://www.w3.org/2000/svg"><sodipodi:namedview
     id="namedview1"
     pagecolor="#ffffff"
     bordercolor="#000000"
     borderopacity="0.25"
     inkscape:showpageshadow="2"
     inkscape:pageopacity="0.0"
     inkscape:pagecheckerboard="0"
     inkscape:deskcolor="#d1d1d1"
     inkscape:document-units="mm"
     inkscape:zoom="1.0697254"
     inkscape:cx="421.60351"
     inkscape:cy="356.16616"
     inkscape:window-width="1920"
     inkscape:window-height="1011"
     inkscape:window-x="0"
     inkscape:window-y="0"
     inkscape:window-maximized="1"
     inkscape:current-layer="layer1" /><defs
     id="defs1" /><g
     inkscape:label="Layer 1"
     inkscape:groupmode="layer"
     id="layer1"><path
       style="fill:#ff9500;fill-opacity:1"
       d="m 30.296146,88.112653 c -0.337065,-0.40574 -0.528975,-5.10735 -0.731303,-17.91614 -0.02773,-1.75531 -0.04885,-1.81075 -0.624011,-1.63808 -4.637175,1.39212 -18.262256,2.71804 -18.904518,1.8397 -1.0531511,-1.44027 -0.05176,-2.87752 6.340696,-9.10045 7.310161,-7.1163 12.45489,-12.24023 13.296432,-13.24268 0.777795,-0.92651 0.814456,-0.93871 2.640828,-0.87884 1.018645,0.0334 2.533559,-0.0979 3.366471,-0.29173 1.51439,-0.35244 1.51439,-0.35244 3.57188,1.48614 8.39359,7.50061 21.44787,3.74201 24.30747,-6.99862 0.70714,-2.65603 0.69135,-2.66723 -1.94322,-1.37763 -7.08308,3.46709 -15.25218,3.07627 -21.46983,-1.02716 -2.90672,-1.91833 -11.613534,-6.75993 -14.16708,-7.87789 -2.410214,-1.05522 -9.166971,-4.63225 -10.544522,-5.58229 -0.739247,-0.50983 -0.739247,-0.50983 -0.557384,0.24408 2.118989,8.78422 11.079783,14.57549 21.669546,14.0048 3.70415,-0.19962 4.59296,0.11411 5.15594,1.81995 1.30075,3.94131 -8.728563,5.3103 -16.596826,2.26546 -10.968086,-4.24442 -17.5309842,-13.77115 -17.5309842,-25.44807 0,-3.28743 0.146016,-3.31646 4.3711292,-0.86906 1.45218,0.84117 6.56939,3.51197 11.371577,5.9351 8.050403,4.06214 16.065914,8.31557 18.554744,9.84607 12.70685,7.81406 26.82423,0.65471 22.81164,-11.56848 -2.96002,-9.01685 -13.85047,-12.392319 -22.42016,-6.94907 -1.62336,1.03111 -1.90291,1.71515 -3.89762,3.92711 -0.30133,0.33415 -0.53888,0.93218 -0.83148,1.64191 -0.0879,0.21314 -0.48061,1.22033 -0.74807,2.31174 -0.26746,1.0914 -0.50361,2.01742 -0.52478,2.05782 -0.0212,0.0404 -0.914894,-0.34656 -1.986052,-0.8599 -1.071158,-0.51333 -2.103484,-0.93334 -2.294058,-0.93334 -1.01524,0 0.125784,-4.27528 1.857351,-6.95927 6.015239,-9.3238575 17.628589,-12.0980147 27.641579,-6.602949 2.56321,1.40668 7.80775,7.255689 8.18994,9.133879 0.0959,0.4711 0.34843,0.76746 0.71031,0.83348 11.36114,2.0726 13.26217,3.2824 9.39063,5.97611 -0.94118,0.65484 -2.82362,2.08359 -4.1832,3.175 -1.35959,1.09141 -3.0504,2.37026 -3.75736,2.8419 -1.27711,0.85201 -1.28539,0.86688 -1.28539,2.30936 0,2.58486 -1.01606,8.0907 -1.75925,9.53312 -0.3749,0.7276 -0.90181,1.95346 -1.17092,2.72414 -0.4118,1.17934 -1.09373,2.15952 -3.28754,4.72546 -2.5676,3.00312 -4.65051,4.72996 -7.18637,5.95788 -3.06416,1.48373 -2.95194,1.31753 -3.27187,4.84533 -0.42541,4.6908 -0.52309,4.87887 -5.35983,10.32003 -2.48584,2.79649 -12.46294,12.74832 -14.94142,14.90358 -2.298267,1.99855 -2.684527,2.17114 -3.273215,1.4625 z m 9.099825,-14.24726 c 9.01359,-9.19339 11.42934,-14.88275 6.71059,-15.80419 -1.29101,-0.2521 -2.98765,-0.75153 -3.77031,-1.10984 -0.97889,-0.44815 -1.31493,-0.52018 -1.42302,-0.31727 -1.43665,2.69697 -1.97312,3.588 -2.74344,4.54032 -0.57594,0.71202 -0.36975,0.57904 -0.97388,1.488 -1.0863,1.63443 -1.58018,1.96779 -1.56085,7.63111 0.0273,7.98285 -0.27881,7.69217 3.76091,3.57187 z M 25.451447,63.674963 c 4.525504,-0.88408 7.890902,-3.42129 11.231834,-8.46782 0.901,-1.36097 0.92178,-1.30837 -0.92944,-2.35313 -0.800356,-0.4517 -1.321813,-1.02384 -1.455196,-1.11445 -0.311028,-0.21129 -0.344915,-0.0905 -0.595313,-0.11086 -0.341309,-0.0277 -0.596032,0.0899 -1.000096,0.32574 -0.551291,0.32183 -0.812023,0.8415 -1.030988,1.09424 -0.618189,0.71356 -1.616413,1.67551 -1.854976,1.95052 -0.493361,0.56873 -0.688829,0.75385 -1.33946,1.41789 -0.581677,0.59367 -0.713069,0.72491 -0.992188,1.00056 -0.638057,0.63012 -0.857849,1.03614 -1.987176,2.19409 -1.129327,1.15795 -2.248915,2.39795 -2.487972,2.75555 -0.239058,0.3576 -0.738076,0.97943 -1.108928,1.38185 -0.771471,0.83714 -1.156218,0.84518 3.549899,-0.0742 z m 24.774064,-33.8355 c -5.23349,-1.80762 -5.50102,-9.17806 -0.41034,-11.30508 3.19313,-1.33418 7.53442,1.0314 8.16829,4.45092 0.1709,0.92193 0.227642,2.058106 -0.335934,3.349915 -0.74916,1.717199 -1.852646,2.485085 -2.367376,2.834395 -1.78653,1.21236 -3.01324,1.37493 -5.05464,0.66985 z M 23.450728,18.201903 c -2.255572,-1.13318 -5.204712,-2.5147 -6.553643,-3.07003 -3.218665,-1.32508 -3.977314,-2.14711 -4.797204,-5.1980193 -1.187248,-4.4178873 -0.441818,-4.3094576 9.895639,1.4393693 1.309688,0.72834 3.542109,1.9004 4.960937,2.60458 2.753808,1.36674 2.86174,1.51067 2.052977,2.73759 -0.287773,0.43657 -0.663122,1.41883 -0.834109,2.18282 -0.376925,1.68412 0.175695,1.76557 -4.724597,-0.69631 z"
       id="path1"
       sodipodi:nodetypes="cssssssscsssssssssssssssssssssssccsssssssssssccsssssscssssssssssssssssssssssssssssss" /></g></svg>
